<?xml version="1.0" encoding="UTF-8"?>
<svg id="base" xmlns="http://www.w3.org/2000/svg" version="1.1" viewBox="0 0 1000.6 221.3">
  <defs>
    <style>
      .cls-1 {
        isolation: isolate;
      }

      .cls-2 {
        fill: #fff;
        stroke-width: 0px;
      }
    </style>
  </defs>
  <g id="oga" class="cls-1">
    <g class="cls-1">
      <path class="cls-2" d="M100.6,120.3c0,27.6-21.4,49.6-49.9,49.6S.9,147.9.9,120.3s21.4-49.6,49.8-49.6,49.9,21.8,49.9,49.6ZM76.3,120.3c0-14.7-9.9-26.8-25.7-26.8s-25.5,12.1-25.5,26.8,9.9,26.8,25.5,26.8,25.7-12.1,25.7-26.8Z"/>
      <path class="cls-2" d="M206.4,72.9v84.2c0,26.5-17.7,47.9-51.2,47.9s-36.9-8-44.7-19l19.2-11.4c3.5,4.7,12.1,9.3,24.8,9.3,18.3,0,28.3-10.1,28.3-28.5v-6.9c-5.8,8.2-15.1,14.5-29.8,14.5-28.5,0-45.8-21.8-45.8-46.2s17.3-46.2,45.8-46.2,24,6.3,29.8,14.5v-12.2h23.6,0ZM181.6,116.9c0-13.8-9.3-25.2-25.2-25.2s-25.2,11-25.2,25.2,9.9,25.2,25.2,25.2,25.2-11.4,25.2-25.2Z"/>
      <path class="cls-2" d="M301.5,110.4v57h-23.7v-10.1c-4.5,7.3-14.9,12.5-27.6,12.5s-33.6-7.6-33.6-27.8c0-31.1,38.4-31.1,50.9-31.1h10.2c-.2-13.6-5-19.6-19.6-19.6s-16.2,4.5-19.8,6.9l-16-12.2c10.4-9.5,23.5-15.3,39.3-15.3,30,0,39.9,17.1,39.9,39.7h0ZM277.8,125.9h-1.5c-17,0-35.4-.2-35.4,14s4.7,12.9,16.4,12.9,18.5-6.9,20.5-10.8v-16.1h0Z"/>
    </g>
  </g>
  <g>
    <path class="cls-2" d="M327.3,149.7c5,0,8.9,3.9,8.9,8.9s-3.9,8.9-8.9,8.9-8.9-3.9-8.9-8.9c-.1-5,3.8-8.9,8.9-8.9Z"/>
    <path class="cls-2" d="M358.7,45.2h12.5v109.5h56.8v11.5h-69.3V45.2h0Z"/>
    <path class="cls-2" d="M437.5,117.1c0-33,15.6-45.8,36.5-45.8s36.7,12.8,36.7,45.8v5c0,33-15.6,45.8-36.7,45.8s-36.5-12.8-36.5-45.8v-5ZM498.8,117.1c0-26.1-9.7-34.6-24.8-34.6s-24.6,8.6-24.6,34.6v5c0,25.9,9.7,34.6,24.6,34.6s24.8-8.7,24.8-34.6v-5Z"/>
    <path class="cls-2" d="M600.1,171.8c0,26.8-15.8,41-37.1,41s-24-3.2-33.1-9.1c1.5-3.4,3-6.7,4.5-10.1,7.4,5,17.1,8,28.7,8s25.1-9.1,25.1-29.8v-17.9c-5.8,9.9-15.1,14-26.4,14-19.6,0-34.8-13.2-34.8-45.8v-5c0-28.9,12.1-42.6,28.3-45.1,3-.6,6.2-.7,9.3-.4,10.1.6,18.6,4.8,23.8,14.2.6-4.3,1.3-8.6,2-12.7h9.7v98.7h0ZM538.8,122.1c0,26.6,9.9,34.8,24.6,34.8s24.8-8.7,24.8-34.3v-7.1c0-24.8-10.2-33.2-24.8-33.2s-24.6,8.2-24.6,34.6v5.2h0Z"/>
    <path class="cls-2" d="M629.1,35.1c4.5,0,7.8,3.4,7.8,8s-3.4,7.8-7.8,7.8-8-3.5-8-7.8,3.5-8,8-8ZM623.1,73.1h11.7v93.1h-11.7v-93.1Z"/>
    <path class="cls-2" d="M658.9,148.4c2.4,1.3,13.2,8.4,31.3,8.4s24.6-5.4,24.6-14.2-10.2-16-26.1-19c-13.4-2.6-32.2-6.7-32.2-27s17.9-25.3,34.8-25.3,27.2,5.2,33.7,9.3l-4.5,10.1c-5.4-3.7-15.6-8.2-29.2-8.2s-22.9,3.4-22.9,14,15.8,14.2,24,15.8c23.6,4.5,34.3,13.6,34.3,30.5s-16.6,25.1-36.5,25.1-27.2-4.1-35.7-9.3l4.4-10.2h0Z"/>
    <path class="cls-2" d="M746.2,45.2h11.8v27.9h38v11.2h-38v50.8c0,13,4.7,18.8,12.1,20.7,2.6.6,5.6.7,8.7.6,7.6-.4,14.2-3.2,18.8-8,1.5,3.5,3,6.7,4.5,10.2-6.9,6-16,9.3-26.3,9.3-16.8,0-29.6-8.7-29.6-33V45.2h0Z"/>
    <path class="cls-2" d="M821.1,35.1c4.5,0,7.8,3.4,7.8,8s-3.4,7.8-7.8,7.8-8-3.5-8-7.8,3.5-8,8-8ZM815.1,73.1h11.7v93.1h-11.7v-93.1Z"/>
    <path class="cls-2" d="M846.6,117.1c0-33.3,16.9-45.8,40.2-45.8s22.3,3.5,30.5,9.3c-1.7,3.4-3.2,6.7-4.8,10.1-6.2-4.5-15.1-8.2-25.7-8.2-16.8,0-28.3,8.7-28.3,34.6v5c0,25.9,11.5,34.6,28.3,34.6s19.6-3.7,25.7-8.4c1.7,3.5,3.2,6.7,4.8,10.2-8.2,5.8-18.6,9.3-30.5,9.3-23.3,0-40.2-12.7-40.2-45.8v-4.9h0Z"/>
    <path class="cls-2" d="M932.8,148.4c2.4,1.3,13.2,8.4,31.3,8.4s24.6-5.4,24.6-14.2-10.2-16-26.1-19c-13.4-2.6-32.2-6.7-32.2-27s17.9-25.3,34.8-25.3,27.2,5.2,33.7,9.3l-4.5,10.1c-5.4-3.7-15.6-8.2-29.2-8.2s-22.9,3.4-22.9,14,15.8,14.2,24,15.8c23.6,4.5,34.3,13.6,34.3,30.5s-16.6,25.1-36.5,25.1-27.2-4.1-35.7-9.3l4.4-10.2h0Z"/>
  </g>
</svg>
