<?xml version="1.0" encoding="utf-8"?>
<!-- Generator: Adobe Illustrator 28.3.0, SVG Export Plug-In . SVG Version: 6.00 Build 0)  -->
<svg version="1.1" id="base" xmlns="http://www.w3.org/2000/svg" xmlns:xlink="http://www.w3.org/1999/xlink" x="0px" y="0px"
	 viewBox="0 0 1000.6 221.3" style="enable-background:new 0 0 1000.6 221.3;" xml:space="preserve">
<style type="text/css">
	.st0{enable-background:new    ;}
	.st1{fill:#E51B20;}
</style>
<g id="oga" class="st0">
	<g class="st0">
		<path class="st1" d="M100.6,120.3c0,27.6-21.4,49.6-49.9,49.6s-49.8-22-49.8-49.6s21.4-49.6,49.8-49.6S100.6,92.5,100.6,120.3z
			 M76.3,120.3c0-14.7-9.9-26.8-25.7-26.8s-25.5,12.1-25.5,26.8s9.9,26.8,25.5,26.8S76.3,135,76.3,120.3z"/>
		<path class="st1" d="M206.4,72.9v84.2c0,26.5-17.7,47.9-51.2,47.9c-19.4,0-36.9-8-44.7-19l19.2-11.4c3.5,4.7,12.1,9.3,24.8,9.3
			c18.3,0,28.3-10.1,28.3-28.5v-6.9c-5.8,8.2-15.1,14.5-29.8,14.5c-28.5,0-45.8-21.8-45.8-46.2s17.3-46.2,45.8-46.2
			c14.7,0,24,6.3,29.8,14.5V72.9L206.4,72.9L206.4,72.9z M181.6,116.9c0-13.8-9.3-25.2-25.2-25.2s-25.2,11-25.2,25.2
			c0,14.2,9.9,25.2,25.2,25.2S181.6,130.7,181.6,116.9z"/>
		<path class="st1" d="M301.5,110.4v57h-23.7v-10.1c-4.5,7.3-14.9,12.5-27.6,12.5c-14.2,0-33.6-7.6-33.6-27.8
			c0-31.1,38.4-31.1,50.9-31.1h10.2c-0.2-13.6-5-19.6-19.6-19.6c-8.6,0-16.2,4.5-19.8,6.9L222.3,86c10.4-9.5,23.5-15.3,39.3-15.3
			C291.6,70.7,301.5,87.8,301.5,110.4L301.5,110.4z M277.8,125.9h-1.5c-17,0-35.4-0.2-35.4,14c0,7.1,4.7,12.9,16.4,12.9
			c11.7,0,18.5-6.9,20.5-10.8L277.8,125.9L277.8,125.9z"/>
	</g>
</g>
<g>
	<path d="M327.3,149.7c5,0,8.9,3.9,8.9,8.9c0,5-3.9,8.9-8.9,8.9c-5,0-8.9-3.9-8.9-8.9C318.3,153.6,322.2,149.7,327.3,149.7z"/>
	<path d="M358.7,45.2h12.5v109.5H428v11.5h-69.3L358.7,45.2L358.7,45.2z"/>
	<path d="M437.5,117.1c0-33,15.6-45.8,36.5-45.8s36.7,12.8,36.7,45.8v5c0,33-15.6,45.8-36.7,45.8s-36.5-12.8-36.5-45.8
		C437.5,122.1,437.5,117.1,437.5,117.1z M498.8,117.1c0-26.1-9.7-34.6-24.8-34.6c-15.1,0-24.6,8.6-24.6,34.6v5
		c0,25.9,9.7,34.6,24.6,34.6s24.8-8.7,24.8-34.6C498.8,122.1,498.8,117.1,498.8,117.1z"/>
	<path d="M600.1,171.8c0,26.8-15.8,41-37.1,41c-13,0-24-3.2-33.1-9.1c1.5-3.4,3-6.7,4.5-10.1c7.4,5,17.1,8,28.7,8
		c14.9,0,25.1-9.1,25.1-29.8v-17.9c-5.8,9.9-15.1,14-26.4,14c-19.6,0-34.8-13.2-34.8-45.8v-5c0-28.9,12.1-42.6,28.3-45.1
		c3-0.6,6.2-0.7,9.3-0.4c10.1,0.6,18.6,4.8,23.8,14.2c0.6-4.3,1.3-8.6,2-12.7h9.7L600.1,171.8L600.1,171.8z M538.8,122.1
		c0,26.6,9.9,34.8,24.6,34.8c14.7,0,24.8-8.7,24.8-34.3v-7.1c0-24.8-10.2-33.2-24.8-33.2c-14.5,0-24.6,8.2-24.6,34.6V122.1z"/>
	<path d="M629.1,35.1c4.5,0,7.8,3.4,7.8,8c0,4.3-3.4,7.8-7.8,7.8c-4.5,0-8-3.5-8-7.8C621.1,38.5,624.6,35.1,629.1,35.1z M623.1,73.1
		h11.7v93.1h-11.7V73.1z"/>
	<path d="M658.9,148.4c2.4,1.3,13.2,8.4,31.3,8.4c14,0,24.6-5.4,24.6-14.2c0-11.5-10.2-16-26.1-19c-13.4-2.6-32.2-6.7-32.2-27
		s17.9-25.3,34.8-25.3c17,0,27.2,5.2,33.7,9.3l-4.5,10.1c-5.4-3.7-15.6-8.2-29.2-8.2c-11.9,0-22.9,3.4-22.9,14
		c0,12.8,15.8,14.2,24,15.8c23.6,4.5,34.3,13.6,34.3,30.5s-16.6,25.1-36.5,25.1c-15.1,0-27.2-4.1-35.7-9.3L658.9,148.4L658.9,148.4z
		"/>
	<path d="M746.2,45.2H758v27.9h38v11.2h-38v50.8c0,13,4.7,18.8,12.1,20.7c2.6,0.6,5.6,0.7,8.7,0.6c7.6-0.4,14.2-3.2,18.8-8
		c1.5,3.5,3,6.7,4.5,10.2c-6.9,6-16,9.3-26.3,9.3c-16.8,0-29.6-8.7-29.6-33L746.2,45.2L746.2,45.2z"/>
	<path d="M821.1,35.1c4.5,0,7.8,3.4,7.8,8c0,4.3-3.4,7.8-7.8,7.8s-8-3.5-8-7.8C813.1,38.5,816.6,35.1,821.1,35.1z M815.1,73.1h11.7
		v93.1h-11.7V73.1z"/>
	<path d="M846.6,117.1c0-33.3,16.9-45.8,40.2-45.8c11.9,0,22.3,3.5,30.5,9.3c-1.7,3.4-3.2,6.7-4.8,10.1c-6.2-4.5-15.1-8.2-25.7-8.2
		c-16.8,0-28.3,8.7-28.3,34.6v5c0,25.9,11.5,34.6,28.3,34.6c10.6,0,19.6-3.7,25.7-8.4c1.7,3.5,3.2,6.7,4.8,10.2
		c-8.2,5.8-18.6,9.3-30.5,9.3c-23.3,0-40.2-12.7-40.2-45.8V117.1L846.6,117.1z"/>
	<path d="M932.8,148.4c2.4,1.3,13.2,8.4,31.3,8.4c14,0,24.6-5.4,24.6-14.2c0-11.5-10.2-16-26.1-19c-13.4-2.6-32.2-6.7-32.2-27
		s17.9-25.3,34.8-25.3c16.9,0,27.2,5.2,33.7,9.3l-4.5,10.1c-5.4-3.7-15.6-8.2-29.2-8.2c-11.9,0-22.9,3.4-22.9,14
		c0,12.8,15.8,14.2,24,15.8c23.6,4.5,34.3,13.6,34.3,30.5s-16.6,25.1-36.5,25.1c-15.1,0-27.2-4.1-35.7-9.3L932.8,148.4L932.8,148.4z
		"/>
</g>
</svg>
